<?xml version="1.0" encoding="utf-8"?>
<!-- Generator: Adobe Illustrator 22.0.1, SVG Export Plug-In . SVG Version: 6.00 Build 0)  -->
<svg version="1.1" id="Calque_1" xmlns="http://www.w3.org/2000/svg" xmlns:xlink="http://www.w3.org/1999/xlink" x="0px" y="0px"
	 viewBox="0 0 59 59" style="enable-background:new 0 0 59 59;" xml:space="preserve">
<style type="text/css">
	.st0{fill:none;stroke:#000000;stroke-miterlimit:10;}
</style>
<circle class="st0" cx="29.5" cy="29.5" r="29"/>
<path d="M23.6,42.5c12.1,0,18.7-10,18.7-18.7c0-0.3,0-0.6,0-0.8c1.3-0.9,2.4-2.1,3.3-3.4c-1.2,0.5-2.5,0.9-3.8,1
	c1.4-0.8,2.4-2.1,2.9-3.6c-1.3,0.8-2.7,1.3-4.2,1.6c-2.5-2.6-6.6-2.8-9.3-0.3c-1.7,1.6-2.4,4-1.9,6.3c-5.3-0.3-10.2-2.8-13.5-6.9
	c-1.7,3-0.9,6.8,2,8.8c-1,0-2.1-0.3-3-0.8v0.1c0,3.1,2.2,5.8,5.3,6.4c-1,0.3-2,0.3-3,0.1c0.9,2.7,3.3,4.5,6.1,4.6
	c-2.3,1.8-5.2,2.8-8.2,2.8c-0.5,0-1,0-1.6-0.1C16.5,41.5,20,42.5,23.6,42.5"/>
</svg>
